<?xml version="1.0" encoding="UTF-8" standalone="no"?>
<!-- Created with Inkscape (http://www.inkscape.org/) -->
<svg id="svg2" xmlns:rdf="http://www.w3.org/1999/02/22-rdf-syntax-ns#" xmlns="http://www.w3.org/2000/svg" height=".94979in" width=".60308in" version="1.1" xmlns:cc="http://creativecommons.org/ns#" xmlns:dc="http://purl.org/dc/elements/1.1/" viewBox="0 0 54.277198 85.481187">
 <metadata id="metadata7">
  <rdf:RDF>
   <cc:Work rdf:about="">
    <dc:format>image/svg+xml</dc:format>
    <dc:type rdf:resource="http://purl.org/dc/dcmitype/StillImage"/>
    <dc:title/>
   </cc:Work>
  </rdf:RDF>
 </metadata>
 <g id="layer1" transform="translate(-44.662 -446.17)">
  <g id="g4380" transform="matrix(.49709 0 0 .49709 232.3 260.96)">
   <path id="path3350" d="m-364.35 479.38c-38.947-52.583 18.695-131.22 70.162-98.879 16.892 11.957 22.865 64.245 22.865 64.245l-30.778 30.132z" fill-rule="evenodd" stroke="#000" stroke-width=".68521px" fill="#e6e6e6"/>
   <ellipse id="path3340" rx="30.636" ry="30.078" cy="419.71" cx="-324.58" fill="#fff"/>
   <path id="path3348" d="m-365.57 544.19s47.496-2.4163 96.98 0.14794l-32.374-95.568c-31.247 18.837-42.606 2.0842-42.606 2.0842z" fill-rule="evenodd" stroke="#000" stroke-width=".42614px" fill="#999"/>
   <path id="path4156" d="m-360.7 405.89c0.77412 3.1944 2.8528 6.0522 5.6535 7.7726s6.2895 2.2825 9.4888 1.5288c3.3081-0.7793 6.1378-2.8418 8.9889-4.6916 1.4256-0.9249 2.8857-1.8103 4.4515-2.4707 1.5657-0.6604 3.2474-1.0924 4.9467-1.0761 2.565 0.0245 5.018 1.0617 7.2379 2.3469s4.2843 2.8332 6.5524 4.0312c4.1999 2.2183 9.0583 3.1704 13.785 2.7011 4.7265-0.46923 9.3029-2.3579 12.985-5.3587-1.1799-8.6269-5.4424-16.8-11.841-22.705-6.3989-5.905-14.887-9.4986-23.581-9.9832-8.5828-0.47843-17.304 2.0741-24.275 7.1045-6.9706 5.0304-12.141 12.503-14.392 20.8z" fill-rule="evenodd" fill="#e6e6e6"/>
   <ellipse id="path4185" rx="3.1239" ry="2.7903" cy="418.16" cx="-332.45" fill="#2b0000"/>
   <path id="path4250" d="m-335.63 424.55s2.308 10.064 8.9157 10.479c6.7604 0.4246 12.771-9.3463 12.771-9.3463" stroke="#000" stroke-width=".36574px" fill="none"/>
   <ellipse id="path4185-0" rx="3.1239" ry="2.7903" cy="418.08" cx="-319.64" fill="#2b0000"/>
   <path id="path4250-5" d="m-331.16 422.23s0.81097 3.3534 3.1328 3.4917c2.3755 0.14147 4.4875-3.1142 4.4875-3.1142" stroke="#000" stroke-width=".12514px" fill="none"/>
  </g>
 </g>
</svg>
