<?xml version="1.0" encoding="UTF-8" standalone="no"?>
<!-- Created with Inkscape (http://www.inkscape.org/) -->
<svg id="svg2" xmlns:rdf="http://www.w3.org/1999/02/22-rdf-syntax-ns#" xmlns="http://www.w3.org/2000/svg" height=".98926in" width=".58352in" version="1.1" xmlns:cc="http://creativecommons.org/ns#" xmlns:dc="http://purl.org/dc/elements/1.1/" viewBox="0 0 52.516811 89.033532">
 <metadata id="metadata7">
  <rdf:RDF>
   <cc:Work rdf:about="">
    <dc:format>image/svg+xml</dc:format>
    <dc:type rdf:resource="http://purl.org/dc/dcmitype/StillImage"/>
    <dc:title/>
   </cc:Work>
  </rdf:RDF>
 </metadata>
 <g id="layer1" transform="translate(-331.21 -456.79)">
  <g id="g4390" transform="matrix(.53851 0 0 .53851 440.57 246.58)">
   <ellipse id="path3340-7" rx="38.717" ry="38.012" cy="432.08" cx="-157.33" fill="#b3b3b3"/>
   <path id="path3348-0" d="m-202.83 555.34s47.511-2.1604 97.009 0.13227l-23.76-89.299c-31.257 16.841-55.555 0.57871-55.555 0.57871z" fill-rule="evenodd" stroke="#000" stroke-width="0.403px" fill="#999"/>
   <path id="path4156-3" d="m-192.64 412.65c4.6245 2.9273 9.5293 5.4117 14.625 7.4082 5.8448 2.2898 12.183 3.9519 18.37 2.8917 4.4238-0.75799 8.4846-2.8565 12.709-4.3734 8.2332-2.9564 17.251-3.6946 25.855-2.1166-2.4646-7.1877-7.1041-13.614-13.151-18.215-6.0469-4.6014-13.477-7.3599-21.062-7.8192-7.6784-0.46502-15.484 1.4298-22.094 5.3636-6.6106 3.9338-11.999 9.8903-15.252 16.861z" fill-rule="evenodd" fill="#333"/>
   <ellipse id="path4185-1" rx="3.9479" ry="3.5263" cy="430.13" cx="-167.26" fill="#2b0000"/>
   <path id="path4250-6" d="m-171.29 438.2s2.9168 12.719 11.267 13.243c8.5437 0.5366 16.14-11.812 16.14-11.812" stroke="#000" stroke-width=".46221px" fill="none"/>
   <ellipse id="path4185-0-8" rx="3.9479" ry="3.5263" cy="430.02" cx="-151.08" fill="#2b0000"/>
   <path id="path4250-5-9" d="m-165.64 435.27s1.0249 4.2379 3.9592 4.4127c3.0021 0.17879 5.6712-3.9356 5.6712-3.9356" stroke="#000" stroke-width=".15815px" fill="none"/>
  </g>
 </g>
</svg>
