<svg version="1.1" id="08-person" xmlns="http://www.w3.org/2000/svg" xmlns:xlink="http://www.w3.org/1999/xlink"
  x="0px" y="0px" width="500px" height="800px" viewBox="0 0 500 800" enable-background="new 0 0 500 800" xml:space="preserve">
<path class="hair" fill="#333333" stroke="#111111" stroke-width="8" stroke-miterlimit="10"
  d="M290.5,71c-47.7-8.7-95.1,1-131.5,38c-31,31.5-34.8,103.3-26.1,155.3c5.6,33.7,20.6,51.2,20.6,77.7c0,22.9-26.2,41.6-40.8,56.8
  C99,413.1,75,435.4,98.2,447.7c46.7,24.8,193.5-70.1,239.3-44.1c88,49.9,10.6-69.5,6.6-81c-8.6-24.6,14.9-32,36.6-81.5
  C406.5,182.2,381.5,87.6,290.5,71z"/>
<path class="body" fill="#DDDDDD" stroke="#111111" stroke-width="8" stroke-miterlimit="10"
  d="M156,741.8c-13.7-14.3-38.8-461.6,100-461.8c152.2-0.3,109.3,441.2,93.7,452.8S187.3,774.5,156,741.8z"/>
<path class="face" fill="#999999" stroke="#111111" stroke-width="8" stroke-linecap="round" stroke-linejoin="round" stroke-miterlimit="10"
  d="M341.6,155.8c-39.7-1.8-75.9-49.5-75.9-49.5c-18.7,36.7-73.4,65.3-96.6,73.8c-1.2,6.7-1.8,13.6-1.8,20.6c0,56.9,41.1,103,91.7,103
  c50.7,0,91.7-46.1,91.7-103C350.7,184.6,347.4,169.4,341.6,155.8z"/>
<g class="face">
  <path fill="#EEEEEE" stroke="#111111" stroke-width="8" stroke-linecap="round" stroke-linejoin="round" stroke-miterlimit="10"
  d="M259.1,269c18.5-2.9,36.8-39.7,35.8-41.3c-1-1.6-66.6-0.8-71.4,1.6C218.6,231.8,239.7,272,259.1,269z"/>
  <circle fill="#111111" cx="290.5" cy="185.5" r="12.5"/>
  <circle fill="#111111" cx="225.5" cy="185.5" r="12.5"/>
</g>
</svg>